<?xml version="1.0" encoding="utf-8"?>
<!-- Generator: Adobe Illustrator 18.0.0, SVG Export Plug-In . SVG Version: 6.00 Build 0)  -->
<!DOCTYPE svg PUBLIC "-//W3C//DTD SVG 1.1//EN" "http://www.w3.org/Graphics/SVG/1.1/DTD/svg11.dtd">
<svg version="1.1" id="图层_1" xmlns="http://www.w3.org/2000/svg" xmlns:xlink="http://www.w3.org/1999/xlink" x="0px" y="0px"
	  width="1500px" height="1500px" viewBox="0 0 1500 1500" enable-background="new 0 0 1500 1500" xml:space="preserve">
	 <g>
<path d="M1200.7,609.7c0-72.8,0-96.2,0-99.6v-0.3v-0.3
	c0-1.6,0-3.1,0-4.7c-1-55.1-10.8-141.8-57.1-168.6c-53-30.6-102.1,25.8-111.9,36.9C962.2,451.6,887,549.5,750.8,549.5h-40.9
	c-136.2,0-211.4-97.9-280.8-176.4c-9.8-11.1-58.9-67.5-111.9-36.9C270.9,363,261.1,449.7,260,504.8c0,1.6,0,3.2,0,4.7
	c0,0,0,0.1,0,0.3v0.3c0,3.2,0,26.8,0,99.6h0.1c0,0,0,163.2,0,252.1c0,5.3,0.1,10.4,0.4,15.2c3.8,73.2,36.5,101.4,91,107.5
	c8.3,0.9,17.1,1.5,26.4,1.5l0,0c36,0,265.5,0,265.5,0h154.1c0,0,249.4,0,285.5,0l0,0c9.2,0,18.2-0.4,26.4-1.5
	c54.5-6.2,87-34.4,91-107.5c0.3-4.8,0.4-10,0.4-15.2c0-88.9,0-252.1,0-252.1H1200.7z"/>
	</g>
</svg>
